<svg width="729" height="617" viewBox="0 0 729 617" fill="none" xmlns="http://www.w3.org/2000/svg">
<path d="M391.209 507.5L504.209 309L492.709 297L376.709 503.5L391.209 507.5Z" fill="#F0F0F0"/>
<path d="M547.709 355.5L536.209 343.5L436.709 521L450.709 525.5L547.709 355.5Z" fill="#F0F0F0"/>
<path d="M529.709 355L536.209 343L548.709 354L542.209 365L529.709 355Z" fill="#0C8900"/>
<path d="M505.209 398L511.709 386L524.209 397L517.709 408L505.209 398Z" fill="#0C8900"/>
<path d="M474.209 453.5L481.709 440L495.709 447L487.209 461.5L474.209 453.5Z" fill="#0C8900"/>
<path d="M445.709 504.5L453.209 491L467.209 498L458.709 512.5L445.709 504.5Z" fill="#0C8900"/>
<path d="M458.209 358.5L464.209 347.5L476.709 357.5L470.709 368L458.209 358.5Z" fill="#0C8900"/>
<path d="M422.209 422.5L428.709 410L442.709 417L435.209 430.5L422.209 422.5Z" fill="#0C8900"/>
<path d="M388.709 481.5L395.209 469L409.209 476L401.709 489.5L388.709 481.5Z" fill="#0C8900"/>
<path d="M486.709 307.5L492.709 297L504.229 309L499.209 318L486.709 307.5Z" fill="#0C8900"/>
<path d="M664.709 429C798.209 493.5 701.209 681 571.709 594L664.709 429Z" fill="white"/>
<path fill-rule="evenodd" clip-rule="evenodd" d="M716.209 569.775C691.856 612.925 635.626 637.016 571.596 594L585.644 569.234C638.287 600.421 685.383 593.696 716.209 569.775ZM619.206 510.068L666.45 429.615C666.032 429.409 665.613 429.204 665.191 429L619.206 510.068Z" fill="#A7A7A7"/>
<path d="M72.2079 341.032C12.8373 322.773 -11.0513 443.609 54.0552 461.43C119.162 479.25 243.509 511.301 297.709 522.5C351.909 533.699 374.51 453.581 327.709 440C280.908 426.419 131.579 359.292 72.2079 341.032Z" fill="#539B4C"/>
<path d="M115.209 263.5C59.4816 236.064 16.7487 351.588 78.2091 379.5C139.669 407.411 261.468 454.355 313.209 474C364.95 493.645 404.767 421.325 360.709 400.5C316.651 379.675 170.937 290.936 115.209 263.5Z" fill="#65C952"/>
<path d="M299.209 39C255.267 -4.90241 163.492 66.3034 212.709 112.5C261.926 158.697 383.036 258.257 425.709 293.5C468.382 328.743 509.227 258.389 474.209 224.5C439.19 190.611 343.151 82.9024 299.209 39Z" fill="#CDF8C5"/>
<path d="M235.209 102.5C186.451 64.0169 102.444 143.853 156.709 184C210.974 224.147 348.72 307.969 395.209 338C441.698 368.031 472.438 292.078 433.709 262.5C394.98 232.922 283.967 140.983 235.209 102.5Z" fill="#95C08C"/>
<path d="M168.55 174.437C108 136.031 36.2091 243 103.209 283C170.21 323 308.639 387.571 356.71 415C404.78 442.429 449.647 359.785 409.351 332.382C369.054 304.978 229.099 212.844 168.55 174.437Z" fill="#E8FCC8"/>
<path d="M178.209 253.5L416.209 394C394.609 429.2 364.876 421 352.709 412.5C287.376 379.333 146.409 307.3 105.209 284.5C64.0091 261.7 76.3758 219 87.7091 200.5L178.209 253.5Z" fill="#5EF940"/>
<path d="M331 304L339.5 340C344.167 343.333 353.4 349.5 353 347.5C352.6 345.5 338.167 317.667 331 304Z" fill="#646B57"/>
<path d="M349 327L362 353L374 360L349 327Z" fill="#646B57"/>
<path d="M231 214C231.833 220 229.9 228.7 215.5 215.5C201.775 202.919 198.164 174.199 198 159.556C207 197.612 224.5 212.5 218.5 206C212.5 199.5 215.5 174.5 215.5 188C215.5 198.8 225.833 209.833 231 214Z" fill="#E8FCC8"/>
<path d="M201.5 204C197.5 201.2 195.5 193.5 195 190C196.726 189.912 198.797 187.585 200.081 185.701C200.068 184.936 200.199 184.353 200.5 184C201.852 182.413 201.35 183.841 200.081 185.701C200.185 191.852 209.581 209.793 214.5 215C211.833 212.5 205.5 206.8 201.5 204Z" fill="#95C08C"/>
<path d="M267 431.5H290.5C296.741 433.963 305.571 437.422 311.967 439.867C314.741 440.605 317.001 441.325 318.5 442C322.558 443.826 318.553 442.384 311.967 439.867C299.938 436.665 278.241 433.125 267 431.5Z" fill="#646B57"/>
<path d="M244 318.5L281 323.5L294.5 331.5L244 318.5Z" fill="#646B57"/>
<path d="M613.209 399L664.709 429L571.709 594L519.209 563.5L613.209 399Z" fill="#1E1F21"/>
<path d="M309.209 79.5C313.209 83.5 611.709 401.5 611.709 401.5L607.709 408.5C607.709 408.5 305.709 88.5 302.209 84.5C298.709 80.5 305.209 75.5 309.209 79.5Z" fill="white"/>
<path d="M301.209 83L607.709 408.5L603.709 415L300.209 92C299.639 87.0481 299.878 85.1069 301.209 83Z" fill="#10B77B"/>
<path d="M117.709 427L528.209 548L524.209 555L105.709 433C95.2091 430.5 107.709 422 117.709 427Z" fill="white"/>
<path d="M105.209 433L524.209 555L520.709 561.5C386.209 521.667 114.609 441.5 108.209 439.5C101.809 437.5 103.542 434.333 105.209 433Z" fill="#10B77B"/>
<path d="M252.209 152.5L592.709 435L588.709 442C475.042 347.333 246.709 157.2 242.709 154C241.909 149.6 248.709 151.167 252.209 152.5Z" fill="white"/>
<path d="M242.709 154L588.709 442L585.209 448C471.042 353.167 242.409 163.2 241.209 162C240.009 160.8 241.709 156.167 242.709 154Z" fill="#10B77B"/>
<path d="M195.209 255L569.709 475L565.709 482L183.709 257C176.909 253.4 190.709 252.5 195.209 255Z" fill="white"/>
<path d="M182.209 256L565.709 482L562.209 488.5C436.709 414.667 185.209 266.7 183.209 265.5C181.209 264.3 181.709 258.667 182.209 256Z" fill="#10B77B"/>
<path d="M139.709 356.5L547.209 514L543.209 521L126.709 360.5C122.209 360.5 131.209 352 139.709 356.5Z" fill="white"/>
<path d="M126.209 360.5L543.209 521L539.709 527C404.709 474.833 133.709 370.1 129.709 368.5C125.709 366.9 125.709 362.5 126.209 360.5Z" fill="#10B77B"/>
<path d="M601.709 419.5L654.209 448L636.709 479.5L583.709 451L601.709 419.5Z" fill="#575B61"/>
<path d="M581.709 455L634.209 483.5L629.209 492.5L575.709 465.5L581.709 455Z" fill="#575B61"/>
<path d="M532.209 541L585.209 569.5L571.709 594L519.209 563.5L532.209 541Z" fill="#3D3D3D"/>
</svg>
